<svg width="650" height="489" viewBox="0 0 650 489" fill="none" xmlns="http://www.w3.org/2000/svg">
<g clip-path="url(#clip0_353_108)">
<path d="M233.155 316.53C255.431 266.638 297.922 228.329 342.903 232.019C309.724 277.958 290.376 337.359 288.284 399.712C287.545 423.763 288.69 450.611 276.148 468.62C268.345 479.826 256.416 485.253 244.688 486.391C232.96 487.53 221.234 484.831 209.662 482.145L206.855 483.242C205.786 425.868 210.88 366.422 233.155 316.53Z" fill="#F0F0F0"/>
<path d="M342.97 233.221C309.707 253.609 281.345 287.658 263.934 329.185C260.17 338.163 256.965 347.687 255.567 357.758C254.168 367.833 255.145 377.423 257.848 386.992C260.319 395.74 263.642 404.324 264.399 413.684C265.198 423.551 262.347 432.776 257.215 440.098C250.935 449.056 242.502 454.607 234.107 459.671C224.786 465.293 215.034 470.944 208.432 481.437C207.632 482.709 206.13 481.054 206.928 479.785C218.415 461.529 238.076 458.097 251.711 443.391C258.073 436.528 262.849 427.184 262.548 416.234C262.284 406.659 258.863 397.803 256.301 388.973C253.611 379.702 252.27 370.379 253.234 360.494C254.221 350.382 257.14 340.678 260.708 331.617C268.753 311.182 279.763 292.422 292.376 276.204C306.872 257.562 323.766 242.216 342.326 230.827C343.475 230.123 344.111 232.521 342.97 233.221V233.221Z" fill="white"/>
<path d="M269.034 315.306C263.935 310.559 260.327 303.658 258.855 295.837C257.383 288.015 258.142 279.782 260.997 272.608C261.579 271.159 263.375 272.241 262.793 273.692C260.124 280.367 259.417 288.036 260.8 295.316C262.182 302.596 265.563 309.007 270.332 313.392C271.367 314.346 270.063 316.255 269.034 315.306V315.306Z" fill="white"/>
<path d="M256.136 382.766C268.914 380.389 280.518 371.967 288.636 359.18C289.439 357.913 290.942 359.567 290.139 360.833C281.673 374.119 269.583 382.852 256.282 385.289C255.014 385.52 254.875 382.996 256.136 382.766V382.766Z" fill="white"/>
<path d="M307.853 260.675C309.526 263.035 311.632 264.83 313.984 265.897C316.336 266.965 318.859 267.272 321.327 266.791C322.592 266.539 322.729 269.064 321.472 269.313C318.744 269.829 315.958 269.485 313.357 268.313C310.757 267.141 308.422 265.176 306.555 262.59C306.363 262.365 306.246 262.055 306.227 261.724C306.208 261.392 306.288 261.064 306.453 260.806C306.625 260.553 306.87 260.398 307.132 260.374C307.394 260.349 307.654 260.457 307.853 260.675Z" fill="white"/>
<path d="M432.4 389.411C431.614 389.596 430.827 389.782 430.034 389.987C419.472 392.552 409.091 396.206 398.994 400.912C398.209 401.26 397.417 401.627 396.641 402.003C372.41 413.671 350.091 430.965 330.818 453.006C323.155 461.786 316.028 471.295 309.498 481.452C300.481 495.479 291.58 511.602 279.797 520.748C278.576 521.719 277.309 522.594 276.003 523.366L208.124 487.518C208.001 487.338 207.872 487.177 207.749 486.996L204.988 485.723C205.296 485.169 205.624 484.603 205.932 484.049C206.11 483.727 206.303 483.413 206.48 483.091C206.604 482.878 206.728 482.666 206.829 482.466C206.87 482.395 206.912 482.325 206.946 482.274C207.048 482.073 207.159 481.901 207.254 481.72C209.085 478.55 210.937 475.391 212.81 472.243C212.816 472.223 212.816 472.223 212.838 472.212C227.154 448.272 243.165 425.643 261.365 406.828C261.913 406.262 262.466 405.676 263.045 405.127C271.286 396.704 280.053 389.153 289.26 382.548C294.311 378.953 299.501 375.685 304.811 372.758C318.543 365.227 333.12 360.494 348.007 358.731C377.684 355.222 407.913 363.837 430.675 387.575C431.257 388.183 431.824 388.783 432.4 389.411Z" fill="#F0F0F0"/>
<path d="M431.89 390.427C395.691 381.207 356.944 386.652 323.407 406.462C316.156 410.745 309.093 415.893 303.215 422.862C297.334 429.834 293.579 438.24 291.212 447.952C289.048 456.831 287.643 466.232 283.821 474.287C279.793 482.777 273.155 487.957 265.595 489.869C256.345 492.208 246.986 490.175 237.889 487.783C227.788 485.127 217.33 482.164 207.096 485.481C205.857 485.883 205.439 483.41 206.677 483.008C224.481 477.237 241.803 489.569 259.643 488.279C267.968 487.677 276.2 483.877 281.137 474.903C285.454 467.056 286.91 457.363 289.04 448.349C291.277 438.884 294.614 430.412 300.058 423.259C305.628 415.942 312.547 410.431 319.68 405.931C335.767 395.782 353.43 389.243 371.169 385.963C391.558 382.191 412.304 382.888 432.508 388.023C433.759 388.341 433.132 390.743 431.89 390.427V390.427Z" fill="white"/>
<path d="M334.041 399.291C332.214 391.591 332.597 383.316 335.12 375.942C337.643 368.569 342.143 362.577 347.815 359.038C348.965 358.326 349.887 360.568 348.735 361.28C343.449 364.563 339.258 370.145 336.919 377.017C334.581 383.89 334.249 391.6 335.983 398.757C336.358 400.313 334.414 400.837 334.041 399.291Z" fill="white"/>
<path d="M291.844 443.266C303.17 451.163 316.418 453.335 328.945 449.348C330.186 448.951 330.604 451.424 329.364 451.82C316.322 455.938 302.539 453.643 290.767 445.392C289.645 444.605 290.728 442.483 291.844 443.266V443.266Z" fill="white"/>
<path d="M390.87 385.428C391.089 388.595 391.922 391.643 393.295 394.298C394.668 396.953 396.538 399.132 398.735 400.64C399.864 401.409 398.78 403.53 397.659 402.766C395.237 401.085 393.174 398.675 391.652 395.746C390.13 392.817 389.195 389.458 388.928 385.962C388.881 385.635 388.934 385.298 389.075 385.019C389.216 384.74 389.436 384.539 389.689 384.459C389.947 384.39 390.215 384.453 390.436 384.635C390.657 384.816 390.813 385.101 390.87 385.428V385.428Z" fill="white"/>
<path d="M303.094 448.554C293.587 390.03 281.704 370.518 281.704 370.518L277.165 366.035L271.705 360.636L271.732 359.942L270.437 359.381L270.133 359.081L269.634 358.593L269.554 358.703L269.385 358.926L244.681 348.235L213.34 334.68L198.828 310.662C196.464 306.751 193.421 303.589 189.937 301.425C186.453 299.262 182.623 298.155 178.747 298.191L132.398 298.628C126.131 298.687 120.108 301.729 115.513 307.155L85.0487 343.135L37.579 372L37.4989 371.898L37.0004 372.352L29.6659 376.817L29.9686 378.823L25.429 382.994C25.429 382.994 13.546 401.149 4.03958 455.605C1.62126 469.462 0.430873 499.185 0.00120745 535.812C-0.0203746 537.665 0.247557 539.505 0.789416 541.225C1.33128 542.944 2.13626 544.51 3.15755 545.83C4.17885 547.15 5.39608 548.199 6.73847 548.915C8.08087 549.63 9.52164 549.999 10.977 550H264.522V550H296.168C297.622 549.999 299.062 549.63 300.403 548.915C301.745 548.2 302.961 547.153 303.982 545.834C305.004 544.516 305.809 542.952 306.351 541.234C306.894 539.516 307.163 537.678 307.144 535.826C306.724 495.971 305.534 463.58 303.094 448.554Z" fill="#3F3D56"/>
<path d="M335.625 51.0381C325.76 51.0381 316.3 56.0274 309.325 64.9084C302.35 73.7895 298.431 85.8348 298.431 98.3944C298.431 110.954 302.35 122.999 309.325 131.88C316.3 140.761 325.76 145.751 335.625 145.751H612.806C622.671 145.751 632.131 140.761 639.106 131.88C646.081 122.999 650 110.954 650 98.3944C650 85.8348 646.081 73.7895 639.106 64.9084C632.131 56.0274 622.671 51.0381 612.806 51.0381H335.625Z" fill="#E5E5E5"/>
<path d="M335.625 60.6221C327.757 60.6221 320.211 64.6016 314.647 71.6853C309.084 78.769 305.958 88.3766 305.958 98.3944C305.958 108.412 309.084 118.02 314.647 125.103C320.211 132.187 327.757 136.167 335.625 136.167H612.806C620.674 136.167 628.22 132.187 633.784 125.103C639.347 118.02 642.473 108.412 642.473 98.3944C642.473 88.3766 639.347 78.769 633.784 71.6853C628.22 64.6016 620.674 60.6221 612.806 60.6221H335.625Z" fill="white"/>
<path d="M162.851 276.021C196.387 276.021 223.573 241.407 223.573 198.708C223.573 156.009 196.387 121.395 162.851 121.395C129.316 121.395 102.129 156.009 102.129 198.708C102.129 241.407 129.316 276.021 162.851 276.021Z" fill="#9E616A"/>
<path d="M147.317 272.236C147.058 271.508 146.799 270.779 146.541 270.046C146.641 270.05 146.739 270.069 146.838 270.072L147.317 272.236Z" fill="#2F2E41"/>
<path d="M100.441 124.91C103.512 121.791 107.101 118.921 111.028 119.082C114.954 119.243 118.936 123.759 118.123 128.652C125.335 112.393 136.815 99.888 150.547 93.3319C164.279 86.7757 179.386 86.5875 193.217 92.8003C202.976 97.1841 212.546 105.954 214.788 118.818C215.363 122.12 215.487 125.741 217.106 128.422C219.148 131.803 223.054 132.567 226.271 131.378C226.303 131.366 226.335 131.354 226.367 131.342C226.91 131.106 227.497 131.082 228.051 131.275C228.605 131.468 229.1 131.868 229.474 132.423C229.847 132.979 230.081 133.664 230.145 134.391C230.209 135.117 230.101 135.851 229.834 136.499L227.072 143.056C230.553 144.043 234.17 143.946 237.615 142.77C238.187 142.579 238.791 142.618 239.346 142.882C239.9 143.146 240.376 143.621 240.71 144.243C241.043 144.865 241.217 145.604 241.208 146.357C241.199 147.11 241.007 147.841 240.659 148.45C231.554 164.366 216.342 174.644 200.819 174.524C189.786 174.438 178.639 169.596 167.902 172.827C163.748 174.077 159.866 176.495 156.542 179.903C153.218 183.312 150.535 187.625 148.691 192.526C146.847 197.427 145.888 202.792 145.884 208.226C145.881 213.661 146.833 219.028 148.671 223.933C145.372 219.339 138.995 220.426 135.621 224.931C132.247 229.435 131.374 236.157 131.714 242.367C132.233 251.864 135.156 260.813 138.237 269.522C112.406 268.487 87.975 245.416 79.7514 214.213C71.4933 182.879 80.1481 145.522 100.441 124.91Z" fill="#2F2E41"/>
<path opacity="0.2" d="M59.7661 430.885L76.7972 548.867L87.0163 550L59.7661 430.885Z" fill="black"/>
<path opacity="0.2" d="M247.367 421.987L230.336 548.782L220.117 550L247.367 421.987Z" fill="black"/>
<path d="M114.967 85.2038C111.701 86.94 108.294 85.0373 106.865 80.68C105.414 76.2561 106.769 71.7653 110.087 70.0014C113.405 68.2372 116.752 70.1446 118.226 74.6398C119.678 79.0676 118.338 83.4116 114.967 85.2038ZM108.712 61.2937L106.115 62.6741C105.467 63.0149 104.741 63.0332 104.082 62.7256C103.424 62.418 102.88 61.8067 102.558 61.0128L102.429 60.693C99.6356 54.2779 99.3158 46.4813 101.484 37.532C103.492 29.5039 104.326 23.8579 102.649 18.7428C100.709 12.8289 96.5675 10.9763 91.286 13.6599C89.2376 14.749 88.5858 14.7316 86.9738 16.7677C86.6232 17.2159 86.2052 17.5697 85.7449 17.8079C85.2845 18.0461 84.7912 18.1638 84.2944 18.154C83.8141 18.1468 83.3398 18.0165 82.8999 17.771C82.46 17.5254 82.0634 17.1695 81.7339 16.7246C81.099 15.8671 80.7432 14.7349 80.7386 13.5564C80.7339 12.378 81.0806 11.2412 81.7087 10.3757C84.4182 6.76437 87.6862 3.90739 91.3065 1.98499C102.654 -4.04805 108.366 4.85887 110.981 12.8297C113.537 20.6261 112.099 27.8599 109.788 37.2283C107.852 45.0129 107.964 50.7812 110.164 56.5167C110.323 56.9503 110.411 57.4203 110.424 57.8985C110.437 58.3766 110.373 58.8531 110.237 59.2993C110.102 59.7455 109.897 60.1521 109.635 60.4948C109.372 60.8376 109.058 61.1093 108.712 61.2937L108.712 61.2937Z" fill="#00B0FF"/>
<path d="M396.851 120.98H341.702C341.526 120.982 341.353 120.939 341.191 120.855C341.028 120.771 340.881 120.646 340.757 120.489C340.632 120.332 340.534 120.145 340.466 119.939C340.399 119.733 340.364 119.512 340.364 119.289C340.364 119.066 340.399 118.845 340.466 118.639C340.534 118.433 340.632 118.246 340.757 118.089C340.881 117.932 341.028 117.807 341.191 117.723C341.353 117.639 341.526 117.596 341.702 117.598H396.851C397.201 117.601 397.537 117.78 397.784 118.097C398.031 118.414 398.17 118.842 398.17 119.289C398.17 119.736 398.031 120.164 397.784 120.481C397.537 120.798 397.201 120.977 396.851 120.98Z" fill="#00B0FF"/>
<path d="M466.81 121.544H411.661C411.486 121.545 411.312 121.503 411.15 121.418C410.988 121.334 410.84 121.21 410.716 121.052C410.592 120.895 410.493 120.708 410.426 120.502C410.358 120.296 410.324 120.076 410.324 119.852C410.324 119.629 410.358 119.409 410.426 119.203C410.493 118.997 410.592 118.81 410.716 118.652C410.84 118.495 410.988 118.371 411.15 118.287C411.312 118.202 411.486 118.16 411.661 118.161H466.81C466.985 118.16 467.159 118.202 467.321 118.287C467.483 118.371 467.631 118.495 467.755 118.652C467.879 118.81 467.978 118.997 468.045 119.203C468.113 119.409 468.147 119.629 468.147 119.852C468.147 120.076 468.113 120.296 468.045 120.502C467.978 120.708 467.879 120.895 467.755 121.052C467.631 121.21 467.483 121.334 467.321 121.418C467.159 121.503 466.985 121.545 466.81 121.544V121.544Z" fill="#00B0FF"/>
<path d="M536.77 122.108H481.621C481.27 122.105 480.935 121.925 480.687 121.608C480.44 121.291 480.302 120.863 480.302 120.416C480.302 119.97 480.44 119.541 480.687 119.225C480.935 118.908 481.27 118.728 481.621 118.725H536.77C536.945 118.724 537.119 118.766 537.281 118.851C537.443 118.935 537.591 119.059 537.715 119.216C537.839 119.374 537.938 119.561 538.005 119.767C538.073 119.972 538.107 120.193 538.107 120.416C538.107 120.639 538.073 120.86 538.005 121.066C537.938 121.272 537.839 121.459 537.715 121.616C537.591 121.774 537.443 121.898 537.281 121.982C537.119 122.067 536.945 122.109 536.77 122.108H536.77Z" fill="#00B0FF"/>
<path d="M606.729 122.671H551.58C551.23 122.668 550.894 122.489 550.647 122.172C550.4 121.855 550.261 121.426 550.261 120.98C550.261 120.533 550.4 120.105 550.647 119.788C550.894 119.471 551.23 119.292 551.58 119.289H606.729C607.08 119.292 607.415 119.471 607.663 119.788C607.91 120.105 608.049 120.533 608.049 120.98C608.049 121.426 607.91 121.855 607.663 122.172C607.415 122.489 607.08 122.668 606.729 122.671Z" fill="#00B0FF"/>
<path d="M369.155 105.415C374.815 105.415 379.404 99.572 379.404 92.3644C379.404 85.1569 374.815 79.314 369.155 79.314C363.494 79.314 358.905 85.1569 358.905 92.3644C358.905 99.572 363.494 105.415 369.155 105.415Z" fill="#00B0FF"/>
<path d="M439.537 105.415C445.198 105.415 449.787 99.572 449.787 92.3644C449.787 85.1569 445.198 79.314 439.537 79.314C433.876 79.314 429.287 85.1569 429.287 92.3644C429.287 99.572 433.876 105.415 439.537 105.415Z" fill="#00B0FF"/>
<path d="M509.919 105.415C515.58 105.415 520.169 99.572 520.169 92.3644C520.169 85.1569 515.58 79.314 509.919 79.314C504.258 79.314 499.669 85.1569 499.669 92.3644C499.669 99.572 504.258 105.415 509.919 105.415Z" fill="#00B0FF"/>
<path d="M580.301 105.415C585.962 105.415 590.551 99.572 590.551 92.3644C590.551 85.1569 585.962 79.314 580.301 79.314C574.64 79.314 570.051 85.1569 570.051 92.3644C570.051 99.572 574.64 105.415 580.301 105.415Z" fill="#00B0FF"/>
</g>
<defs>
<clipPath id="clip0_353_108">
<rect width="650" height="550" fill="white"/>
</clipPath>
</defs>
</svg>
